<svg width="1280" height="1058" xmlns="http://www.w3.org/2000/svg" xmlns:xlink="http://www.w3.org/1999/xlink" overflow="hidden"><defs><clipPath id="clip0"><rect x="0" y="0" width="1280" height="1058"/></clipPath></defs><g clip-path="url(#clip0)"><rect x="0" y="0" width="1280" height="1057.67" fill="#FFFFFF"/><path d="M164.5 107.466C164.5 102.497 168.529 98.469 173.5 98.469 178.471 98.469 182.5 102.497 182.5 107.466 182.5 112.435 178.471 116.463 173.5 116.463 168.529 116.463 164.5 112.435 164.5 107.466Z" stroke="#ED7D31" stroke-width="1.33333" stroke-miterlimit="8" fill="#F4B183" fill-rule="evenodd"/><path d="M155.5 229.428C155.5 224.459 159.529 220.431 164.5 220.431 169.471 220.431 173.5 224.459 173.5 229.428 173.5 234.397 169.471 238.425 164.5 238.425 159.529 238.425 155.5 234.397 155.5 229.428Z" stroke="#ED7D31" stroke-width="1.33333" stroke-miterlimit="8" fill="#F4B183" fill-rule="evenodd"/><path d="M62.5001 94.4703C62.5001 89.5013 66.5295 85.4731 71.5001 85.4731 76.4706 85.4731 80.5001 89.5013 80.5001 94.4703 80.5001 99.4393 76.4706 103.467 71.5001 103.467 66.5295 103.467 62.5001 99.4393 62.5001 94.4703Z" stroke="#ED7D31" stroke-width="1.33333" stroke-miterlimit="8" fill="#F4B183" fill-rule="evenodd"/><path d="M76.5001 238.425C76.5001 233.456 80.5295 229.428 85.5001 229.428 90.4706 229.428 94.5001 233.456 94.5001 238.425 94.5001 243.394 90.4706 247.422 85.5001 247.422 80.5295 247.422 76.5001 243.394 76.5001 238.425Z" stroke="#ED7D31" stroke-width="1.33333" stroke-miterlimit="8" fill="#F4B183" fill-rule="evenodd"/><path d="M15.5001 167.447C15.5001 162.478 19.5295 158.45 24.5001 158.45 29.4706 158.45 33.5 162.478 33.5 167.447 33.5 172.416 29.4706 176.444 24.5001 176.444 19.5295 176.444 15.5001 172.416 15.5001 167.447Z" stroke="#ED7D31" stroke-width="1.33333" stroke-miterlimit="8" fill="#F4B183" fill-rule="evenodd"/><path d="M274.5 232.427C274.5 227.458 278.53 223.43 283.5 223.43 288.471 223.43 292.5 227.458 292.5 232.427 292.5 237.396 288.471 241.424 283.5 241.424 278.53 241.424 274.5 237.396 274.5 232.427Z" stroke="#ED7D31" stroke-width="1.33333" stroke-miterlimit="8" fill="#F4B183" fill-rule="evenodd"/><path d="M192.5 142.955C192.5 138.262 196.529 134.458 201.5 134.458 206.471 134.458 210.5 138.262 210.5 142.955 210.5 147.648 206.471 151.452 201.5 151.452 196.529 151.452 192.5 147.648 192.5 142.955Z" stroke="#ED7D31" stroke-width="1.33333" stroke-miterlimit="8" fill="#F4B183" fill-rule="evenodd"/><path d="M240.5 167.447C240.5 162.478 244.529 158.45 249.5 158.45 254.471 158.45 258.5 162.478 258.5 167.447 258.5 172.416 254.471 176.444 249.5 176.444 244.529 176.444 240.5 172.416 240.5 167.447Z" stroke="#ED7D31" stroke-width="1.33333" stroke-miterlimit="8" fill="#F4B183" fill-rule="evenodd"/><path d="M321.5 131.459C321.5 126.49 325.53 122.461 330.5 122.461 335.471 122.461 339.5 126.49 339.5 131.459 339.5 136.428 335.471 140.456 330.5 140.456 325.53 140.456 321.5 136.428 321.5 131.459Z" stroke="#ED7D31" stroke-width="1.33333" stroke-miterlimit="8" fill="#F4B183" fill-rule="evenodd"/><path d="M0 0 34.7727 60.1752" stroke="#404040" stroke-width="3.33228" stroke-miterlimit="8" stroke-opacity="0.501961" fill="none" fill-rule="evenodd" transform="matrix(-1.00032 0 0 1 65.2837 101.468)"/><path d="M166.657 101.228 80.5001 94.4703" stroke="#404040" stroke-width="3.33333" stroke-miterlimit="8" stroke-opacity="0.501961" fill="none" fill-rule="evenodd"/><path d="M30.5001 173.445 78.8793 232.116" stroke="#404040" stroke-width="3.33333" stroke-miterlimit="8" stroke-opacity="0.501961" fill="none" fill-rule="evenodd"/><path d="M0 0 19.0464 31.6703" stroke="#404040" stroke-width="3.33228" stroke-miterlimit="8" stroke-opacity="0.501961" fill="none" fill-rule="evenodd" transform="matrix(-1.00032 0 0 1 166.552 114.464)"/><path d="M0 0 60.7506 8.96285" stroke="#404040" stroke-width="3.33228" stroke-miterlimit="8" stroke-opacity="0.501961" fill="none" fill-rule="evenodd" transform="matrix(-1.00032 0 0 1 155.27 229.428)"/><path d="M0 0 72.3281 50.0116" stroke="#404040" stroke-width="3.33228" stroke-miterlimit="8" stroke-opacity="0.501961" fill="none" fill-rule="evenodd" transform="matrix(1.00032 0 0 -1 170.5 223.457)"/><path d="M255.5 173.445 277.403 226.087" stroke="#404040" stroke-width="3.33333" stroke-miterlimit="8" stroke-opacity="0.501961" fill="none" fill-rule="evenodd"/><path d="M277.8 238.391 173.5 229.428" stroke="#404040" stroke-width="3.33333" stroke-miterlimit="8" stroke-opacity="0.501961" fill="none" fill-rule="evenodd"/><path d="M0 0 81.7964 33.5827" stroke="#404040" stroke-width="3.33228" stroke-miterlimit="8" stroke-opacity="0.501961" fill="none" fill-rule="evenodd" transform="matrix(1.00032 0 0 -1 179.5 101.061)"/><path d="M194.795 137.043 179.5 114.464" stroke="#404040" stroke-width="3.33333" stroke-miterlimit="8" stroke-opacity="0.501961" fill="none" fill-rule="evenodd"/><path d="M0 0 30.788 71.5904" stroke="#404040" stroke-width="3.33228" stroke-miterlimit="8" stroke-opacity="0.501961" fill="none" fill-rule="evenodd" transform="matrix(-1.00032 0 0 1 201.298 151.452)"/><path d="M0 0 38.0461 5.38172" stroke="#404040" stroke-width="3.33228" stroke-miterlimit="8" stroke-opacity="0.501961" fill="none" fill-rule="evenodd" transform="matrix(1.00032 0 0 -1 156.5 154.835)"/><path d="M0 0 56.4635 62.4945" stroke="#404040" stroke-width="3.33228" stroke-miterlimit="8" stroke-opacity="0.501961" fill="none" fill-rule="evenodd" transform="matrix(-1.00032 0 0 1 263.981 74.4766)"/><path d="M279.5 67.4788 324.423 125.174" stroke="#404040" stroke-width="3.33333" stroke-miterlimit="8" stroke-opacity="0.501961" fill="none" fill-rule="evenodd"/><path d="M240.094 167.322 207.5 149.453" stroke="#404040" stroke-width="3.33333" stroke-miterlimit="8" stroke-opacity="0.501961" fill="none" fill-rule="evenodd"/><path d="M0 0 40.5597 85.3526" stroke="#404040" stroke-width="3.33228" stroke-miterlimit="8" stroke-opacity="0.501961" fill="none" fill-rule="evenodd" transform="matrix(-1.00032 0 0 1 331.073 140.456)"/><path d="M0 0 66.1653 29.0015" stroke="#404040" stroke-width="3.33228" stroke-miterlimit="8" stroke-opacity="0.501961" fill="none" fill-rule="evenodd" transform="matrix(1.00032 0 0 -1 258.5 167.458)"/><path d="M261.5 67.4788C261.5 62.5098 265.53 58.4816 270.5 58.4816 275.471 58.4816 279.5 62.5098 279.5 67.4788 279.5 72.4478 275.471 76.476 270.5 76.476 265.53 76.476 261.5 72.4478 261.5 67.4788Z" stroke="#ED7D31" stroke-width="1.33333" stroke-miterlimit="8" fill="#F4B183" fill-rule="evenodd"/><path d="M0 0 21.2566 81.45" stroke="#404040" stroke-width="3.33228" stroke-miterlimit="8" stroke-opacity="0.501961" fill="none" fill-rule="evenodd" transform="matrix(-1.00032 0 0 1 270.763 76.476)"/><path d="M71.5001 132.458C71.5001 127.489 75.5295 123.461 80.5001 123.461 85.4706 123.461 89.5001 127.489 89.5001 132.458 89.5001 137.427 85.4706 141.455 80.5001 141.455 75.5295 141.455 71.5001 137.427 71.5001 132.458Z" stroke="#ED7D31" stroke-width="1.33333" stroke-miterlimit="8" fill="#F4B183" fill-rule="evenodd"/><path d="M138.5 154.451C138.5 149.482 142.529 145.454 147.5 145.454 152.471 145.454 156.5 149.482 156.5 154.451 156.5 159.42 152.471 163.449 147.5 163.449 142.529 163.449 138.5 159.42 138.5 154.451Z" stroke="#ED7D31" stroke-width="1.33333" stroke-miterlimit="8" fill="#F4B183" fill-rule="evenodd"/><path d="M147.5 163.449 157.385 223.324" stroke="#404040" stroke-width="3.33333" stroke-miterlimit="8" stroke-opacity="0.501961" fill="none" fill-rule="evenodd"/><path d="M71.5001 103.467 74.1241 125.895" stroke="#404040" stroke-width="3.33333" stroke-miterlimit="8" stroke-opacity="0.501961" fill="none" fill-rule="evenodd"/><path d="M0 0 41.1059 28.7913" stroke="#404040" stroke-width="3.33228" stroke-miterlimit="8" stroke-opacity="0.501961" fill="none" fill-rule="evenodd" transform="matrix(1.00032 0 0 -1 33.5001 167.248)"/><path d="M85.1364 230.004 80.5001 141.455" stroke="#404040" stroke-width="3.33333" stroke-miterlimit="8" stroke-opacity="0.501961" fill="none" fill-rule="evenodd"/><path d="M0 0 77.1738 18.2931" stroke="#404040" stroke-width="3.33228" stroke-miterlimit="8" stroke-opacity="0.501961" fill="none" fill-rule="evenodd" transform="matrix(1.00032 0 0 -1 89.5001 132.757)"/><path d="M87.5001 138.456 155.53 229.622" stroke="#404040" stroke-width="3.33333" stroke-miterlimit="8" stroke-opacity="0.501961" fill="none" fill-rule="evenodd"/><path d="M0 0 9.16509 104.212" stroke="#404040" stroke-width="3.33228" stroke-miterlimit="8" stroke-opacity="0.501961" fill="none" fill-rule="evenodd" transform="matrix(-1.00032 0 0 1 173.668 116.463)"/><path d="M87.5001 138.456 139.311 154.457" stroke="#404040" stroke-width="3.33333" stroke-miterlimit="8" stroke-opacity="0.501961" fill="none" fill-rule="evenodd"/><path d="M37.522 521.83 57.9944 521.83 57.9944 542.296 37.522 542.296Z" fill="#FBE5D6" fill-rule="evenodd"/><path d="M57.9944 521.83 78.4669 521.83 78.4669 542.296 57.9944 542.296Z" fill="#FBE5D6" fill-rule="evenodd"/><path d="M78.4669 521.83 98.9393 521.83 98.9393 542.296 78.4669 542.296Z" fill="#F8CBAD" fill-rule="evenodd"/><path d="M98.9393 521.83 119.412 521.83 119.412 542.296 98.9393 542.296Z" fill="#FBE5D6" fill-rule="evenodd"/><path d="M119.412 521.83 139.884 521.83 139.884 542.296 119.412 542.296Z" fill="#FBE5D6" fill-rule="evenodd"/><path d="M139.884 521.83 160.357 521.83 160.357 542.296 139.884 542.296Z" fill="#FBE5D6" fill-rule="evenodd"/><path d="M160.357 521.83 180.829 521.83 180.829 542.296 160.357 542.296Z" fill="#FBE5D6" fill-rule="evenodd"/><path d="M180.829 521.83 201.302 521.83 201.302 542.296 180.829 542.296Z" fill="#FBE5D6" fill-rule="evenodd"/><path d="M201.302 521.83 221.774 521.83 221.774 542.296 201.302 542.296Z" fill="#FBE5D6" fill-rule="evenodd"/><path d="M221.774 521.83 242.246 521.83 242.246 542.296 221.774 542.296Z" fill="#FBE5D6" fill-rule="evenodd"/><path d="M242.246 521.83 262.719 521.83 262.719 542.296 242.246 542.296Z" fill="#FBE5D6" fill-rule="evenodd"/><path d="M262.719 521.83 283.191 521.83 283.191 542.296 262.719 542.296Z" fill="#FBE5D6" fill-rule="evenodd"/><path d="M37.522 542.296 57.9944 542.296 57.9944 562.762 37.522 562.762Z" fill="#F4B183" fill-rule="evenodd"/><path d="M57.9944 542.296 78.4669 542.296 78.4669 562.762 57.9944 562.762Z" fill="#C55A11" fill-rule="evenodd"/><path d="M78.4669 542.296 98.9393 542.296 98.9393 562.762 78.4669 562.762Z" fill="#843C0C" fill-rule="evenodd"/><path d="M98.9393 542.296 119.412 542.296 119.412 562.762 98.9393 562.762Z" fill="#FBE5D6" fill-rule="evenodd"/><path d="M119.412 542.296 139.884 542.296 139.884 562.762 119.412 562.762Z" fill="#FBE5D6" fill-rule="evenodd"/><path d="M139.884 542.296 160.357 542.296 160.357 562.762 139.884 562.762Z" fill="#F8CBAD" fill-rule="evenodd"/><path d="M160.357 542.296 180.829 542.296 180.829 562.762 160.357 562.762Z" fill="#FBE5D6" fill-rule="evenodd"/><path d="M180.829 542.296 201.302 542.296 201.302 562.762 180.829 562.762Z" fill="#F4B183" fill-rule="evenodd"/><path d="M201.302 542.296 221.774 542.296 221.774 562.762 201.302 562.762Z" fill="#FBE5D6" fill-rule="evenodd"/><path d="M221.774 542.296 242.246 542.296 242.246 562.762 221.774 562.762Z" fill="#FBE5D6" fill-rule="evenodd"/><path d="M242.246 542.296 262.719 542.296 262.719 562.762 242.246 562.762Z" fill="#FBE5D6" fill-rule="evenodd"/><path d="M262.719 542.296 283.191 542.296 283.191 562.762 262.719 562.762Z" fill="#F4B183" fill-rule="evenodd"/><path d="M37.522 562.762 57.9944 562.762 57.9944 583.228 37.522 583.228Z" fill="#FBE5D6" fill-rule="evenodd"/><path d="M57.9944 562.762 78.4669 562.762 78.4669 583.228 57.9944 583.228Z" fill="#F8CBAD" fill-rule="evenodd"/><path d="M78.4669 562.762 98.9393 562.762 98.9393 583.228 78.4669 583.228Z" fill="#FBE5D6" fill-rule="evenodd"/><path d="M98.9393 562.762 119.412 562.762 119.412 583.228 98.9393 583.228Z" fill="#FBE5D6" fill-rule="evenodd"/><path d="M119.412 562.762 139.884 562.762 139.884 583.228 119.412 583.228Z" fill="#FBE5D6" fill-rule="evenodd"/><path d="M139.884 562.762 160.357 562.762 160.357 583.228 139.884 583.228Z" fill="#FBE5D6" fill-rule="evenodd"/><path d="M160.357 562.762 180.829 562.762 180.829 583.228 160.357 583.228Z" fill="#FBE5D6" fill-rule="evenodd"/><path d="M180.829 562.762 201.302 562.762 201.302 583.228 180.829 583.228Z" fill="#FBE5D6" fill-rule="evenodd"/><path d="M201.302 562.762 221.774 562.762 221.774 583.228 201.302 583.228Z" fill="#FBE5D6" fill-rule="evenodd"/><path d="M221.774 562.762 242.246 562.762 242.246 583.228 221.774 583.228Z" fill="#C55A11" fill-rule="evenodd"/><path d="M242.246 562.762 262.719 562.762 262.719 583.228 242.246 583.228Z" fill="#FBE5D6" fill-rule="evenodd"/><path d="M262.719 562.762 283.191 562.762 283.191 583.228 262.719 583.228Z" fill="#FBE5D6" fill-rule="evenodd"/><path d="M37.522 583.228 57.9944 583.228 57.9944 603.693 37.522 603.693Z" fill="#FBE5D6" fill-rule="evenodd"/><path d="M57.9944 583.228 78.4669 583.228 78.4669 603.693 57.9944 603.693Z" fill="#FBE5D6" fill-rule="evenodd"/><path d="M78.4669 583.228 98.9393 583.228 98.9393 603.693 78.4669 603.693Z" fill="#FBE5D6" fill-rule="evenodd"/><path d="M98.9393 583.228 119.412 583.228 119.412 603.693 98.9393 603.693Z" fill="#F4B183" fill-rule="evenodd"/><path d="M119.412 583.228 139.884 583.228 139.884 603.693 119.412 603.693Z" fill="#FBE5D6" fill-rule="evenodd"/><path d="M139.884 583.228 160.357 583.228 160.357 603.693 139.884 603.693Z" fill="#FBE5D6" fill-rule="evenodd"/><path d="M160.357 583.228 180.829 583.228 180.829 603.693 160.357 603.693Z" fill="#FBE5D6" fill-rule="evenodd"/><path d="M180.829 583.228 201.302 583.228 201.302 603.693 180.829 603.693Z" fill="#FBE5D6" fill-rule="evenodd"/><path d="M201.302 583.228 221.774 583.228 221.774 603.693 201.302 603.693Z" fill="#FBE5D6" fill-rule="evenodd"/><path d="M221.774 583.228 242.246 583.228 242.246 603.693 221.774 603.693Z" fill="#FBE5D6" fill-rule="evenodd"/><path d="M242.246 583.228 262.719 583.228 262.719 603.693 242.246 603.693Z" fill="#FBE5D6" fill-rule="evenodd"/><path d="M262.719 583.228 283.191 583.228 283.191 603.693 262.719 603.693Z" fill="#C55A11" fill-rule="evenodd"/><path d="M37.522 603.693 57.9944 603.693 57.9944 624.159 37.522 624.159Z" fill="#F4B183" fill-rule="evenodd"/><path d="M57.9944 603.693 78.4669 603.693 78.4669 624.159 57.9944 624.159Z" fill="#FBE5D6" fill-rule="evenodd"/><path d="M78.4669 603.693 98.9393 603.693 98.9393 624.159 78.4669 624.159Z" fill="#FBE5D6" fill-rule="evenodd"/><path d="M98.9393 603.693 119.412 603.693 119.412 624.159 98.9393 624.159Z" fill="#FBE5D6" fill-rule="evenodd"/><path d="M119.412 603.693 139.884 603.693 139.884 624.159 119.412 624.159Z" fill="#FBE5D6" fill-rule="evenodd"/><path d="M139.884 603.693 160.357 603.693 160.357 624.159 139.884 624.159Z" fill="#FBE5D6" fill-rule="evenodd"/><path d="M160.357 603.693 180.829 603.693 180.829 624.159 160.357 624.159Z" fill="#FBE5D6" fill-rule="evenodd"/><path d="M180.829 603.693 201.302 603.693 201.302 624.159 180.829 624.159Z" fill="#FBE5D6" fill-rule="evenodd"/><path d="M201.302 603.693 221.774 603.693 221.774 624.159 201.302 624.159Z" fill="#F8CBAD" fill-rule="evenodd"/><path d="M221.774 603.693 242.246 603.693 242.246 624.159 221.774 624.159Z" fill="#FBE5D6" fill-rule="evenodd"/><path d="M242.246 603.693 262.719 603.693 262.719 624.159 242.246 624.159Z" fill="#FBE5D6" fill-rule="evenodd"/><path d="M262.719 603.693 283.191 603.693 283.191 624.159 262.719 624.159Z" fill="#F4B183" fill-rule="evenodd"/><path d="M37.522 624.159 57.9944 624.159 57.9944 644.625 37.522 644.625Z" fill="#FBE5D6" fill-rule="evenodd"/><path d="M57.9944 624.159 78.4669 624.159 78.4669 644.625 57.9944 644.625Z" fill="#FBE5D6" fill-rule="evenodd"/><path d="M78.4669 624.159 98.9393 624.159 98.9393 644.625 78.4669 644.625Z" fill="#F4B183" fill-rule="evenodd"/><path d="M98.9393 624.159 119.412 624.159 119.412 644.625 98.9393 644.625Z" fill="#C55A11" fill-rule="evenodd"/><path d="M119.412 624.159 139.884 624.159 139.884 644.625 119.412 644.625Z" fill="#FBE5D6" fill-rule="evenodd"/><path d="M139.884 624.159 160.357 624.159 160.357 644.625 139.884 644.625Z" fill="#F8CBAD" fill-rule="evenodd"/><path d="M160.357 624.159 180.829 624.159 180.829 644.625 160.357 644.625Z" fill="#FBE5D6" fill-rule="evenodd"/><path d="M180.829 624.159 201.302 624.159 201.302 644.625 180.829 644.625Z" fill="#F4B183" fill-rule="evenodd"/><path d="M201.302 624.159 221.774 624.159 221.774 644.625 201.302 644.625Z" fill="#FBE5D6" fill-rule="evenodd"/><path d="M221.774 624.159 242.246 624.159 242.246 644.625 221.774 644.625Z" fill="#FBE5D6" fill-rule="evenodd"/><path d="M242.246 624.159 262.719 624.159 262.719 644.625 242.246 644.625Z" fill="#FBE5D6" fill-rule="evenodd"/><path d="M262.719 624.159 283.191 624.159 283.191 644.625 262.719 644.625Z" fill="#F4B183" fill-rule="evenodd"/><path d="M37.522 644.625 57.9944 644.625 57.9944 665.091 37.522 665.091Z" fill="#FBE5D6" fill-rule="evenodd"/><path d="M57.9944 644.625 78.4669 644.625 78.4669 665.091 57.9944 665.091Z" fill="#FBE5D6" fill-rule="evenodd"/><path d="M78.4669 644.625 98.9393 644.625 98.9393 665.091 78.4669 665.091Z" fill="#FBE5D6" fill-rule="evenodd"/><path d="M98.9393 644.625 119.412 644.625 119.412 665.091 98.9393 665.091Z" fill="#FBE5D6" fill-rule="evenodd"/><path d="M119.412 644.625 139.884 644.625 139.884 665.091 119.412 665.091Z" fill="#FBE5D6" fill-rule="evenodd"/><path d="M139.884 644.625 160.357 644.625 160.357 665.091 139.884 665.091Z" fill="#F8CBAD" fill-rule="evenodd"/><path d="M160.357 644.625 180.829 644.625 180.829 665.091 160.357 665.091Z" fill="#F4B183" fill-rule="evenodd"/><path d="M180.829 644.625 201.302 644.625 201.302 665.091 180.829 665.091Z" fill="#F4B183" fill-rule="evenodd"/><path d="M201.302 644.625 221.774 644.625 221.774 665.091 201.302 665.091Z" fill="#FBE5D6" fill-rule="evenodd"/><path d="M221.774 644.625 242.246 644.625 242.246 665.091 221.774 665.091Z" fill="#FBE5D6" fill-rule="evenodd"/><path d="M242.246 644.625 262.719 644.625 262.719 665.091 242.246 665.091Z" fill="#F8CBAD" fill-rule="evenodd"/><path d="M262.719 644.625 283.191 644.625 283.191 665.091 262.719 665.091Z" fill="#FBE5D6" fill-rule="evenodd"/><path d="M37.522 665.091 57.9944 665.091 57.9944 685.557 37.522 685.557Z" fill="#FBE5D6" fill-rule="evenodd"/><path d="M57.9944 665.091 78.4669 665.091 78.4669 685.557 57.9944 685.557Z" fill="#FBE5D6" fill-rule="evenodd"/><path d="M78.4669 665.091 98.9393 665.091 98.9393 685.557 78.4669 685.557Z" fill="#F4B183" fill-rule="evenodd"/><path d="M98.9393 665.091 119.412 665.091 119.412 685.557 98.9393 685.557Z" fill="#FBE5D6" fill-rule="evenodd"/><path d="M119.412 665.091 139.884 665.091 139.884 685.557 119.412 685.557Z" fill="#FBE5D6" fill-rule="evenodd"/><path d="M139.884 665.091 160.357 665.091 160.357 685.557 139.884 685.557Z" fill="#FBE5D6" fill-rule="evenodd"/><path d="M160.357 665.091 180.829 665.091 180.829 685.557 160.357 685.557Z" fill="#F4B183" fill-rule="evenodd"/><path d="M180.829 665.091 201.302 665.091 201.302 685.557 180.829 685.557Z" fill="#FBE5D6" fill-rule="evenodd"/><path d="M201.302 665.091 221.774 665.091 221.774 685.557 201.302 685.557Z" fill="#FBE5D6" fill-rule="evenodd"/><path d="M221.774 665.091 242.246 665.091 242.246 685.557 221.774 685.557Z" fill="#FBE5D6" fill-rule="evenodd"/><path d="M242.246 665.091 262.719 665.091 262.719 685.557 242.246 685.557Z" fill="#FBE5D6" fill-rule="evenodd"/><path d="M262.719 665.091 283.191 665.091 283.191 685.557 262.719 685.557Z" fill="#FBE5D6" fill-rule="evenodd"/><path d="M37.522 685.557 57.9944 685.557 57.9944 706.023 37.522 706.023Z" fill="#FBE5D6" fill-rule="evenodd"/><path d="M57.9944 685.557 78.4669 685.557 78.4669 706.023 57.9944 706.023Z" fill="#F4B183" fill-rule="evenodd"/><path d="M78.4669 685.557 98.9393 685.557 98.9393 706.023 78.4669 706.023Z" fill="#FBE5D6" fill-rule="evenodd"/><path d="M98.9393 685.557 119.412 685.557 119.412 706.023 98.9393 706.023Z" fill="#C55A11" fill-rule="evenodd"/><path d="M119.412 685.557 139.884 685.557 139.884 706.023 119.412 706.023Z" fill="#FBE5D6" fill-rule="evenodd"/><path d="M139.884 685.557 160.357 685.557 160.357 706.023 139.884 706.023Z" fill="#FBE5D6" fill-rule="evenodd"/><path d="M160.357 685.557 180.829 685.557 180.829 706.023 160.357 706.023Z" fill="#FBE5D6" fill-rule="evenodd"/><path d="M180.829 685.557 201.302 685.557 201.302 706.023 180.829 706.023Z" fill="#F4B183" fill-rule="evenodd"/><path d="M201.302 685.557 221.774 685.557 221.774 706.023 201.302 706.023Z" fill="#FBE5D6" fill-rule="evenodd"/><path d="M221.774 685.557 242.246 685.557 242.246 706.023 221.774 706.023Z" fill="#C55A11" fill-rule="evenodd"/><path d="M242.246 685.557 262.719 685.557 262.719 706.023 242.246 706.023Z" fill="#FBE5D6" fill-rule="evenodd"/><path d="M262.719 685.557 283.191 685.557 283.191 706.023 262.719 706.023Z" fill="#FBE5D6" fill-rule="evenodd"/><path d="M37.522 706.023 57.9944 706.023 57.9944 726.489 37.522 726.489Z" fill="#FBE5D6" fill-rule="evenodd"/><path d="M57.9944 706.023 78.4669 706.023 78.4669 726.489 57.9944 726.489Z" fill="#FBE5D6" fill-rule="evenodd"/><path d="M78.4669 706.023 98.9393 706.023 98.9393 726.489 78.4669 726.489Z" fill="#FBE5D6" fill-rule="evenodd"/><path d="M98.9393 706.023 119.412 706.023 119.412 726.489 98.9393 726.489Z" fill="#FBE5D6" fill-rule="evenodd"/><path d="M119.412 706.023 139.884 706.023 139.884 726.489 119.412 726.489Z" fill="#FBE5D6" fill-rule="evenodd"/><path d="M139.884 706.023 160.357 706.023 160.357 726.489 139.884 726.489Z" fill="#F8CBAD" fill-rule="evenodd"/><path d="M160.357 706.023 180.829 706.023 180.829 726.489 160.357 726.489Z" fill="#FBE5D6" fill-rule="evenodd"/><path d="M180.829 706.023 201.302 706.023 201.302 726.489 180.829 726.489Z" fill="#FBE5D6" fill-rule="evenodd"/><path d="M201.302 706.023 221.774 706.023 221.774 726.489 201.302 726.489Z" fill="#F8CBAD" fill-rule="evenodd"/><path d="M221.774 706.023 242.246 706.023 242.246 726.489 221.774 726.489Z" fill="#C55A11" fill-rule="evenodd"/><path d="M242.246 706.023 262.719 706.023 262.719 726.489 242.246 726.489Z" fill="#FBE5D6" fill-rule="evenodd"/><path d="M262.719 706.023 283.191 706.023 283.191 726.489 262.719 726.489Z" fill="#F8CBAD" fill-rule="evenodd"/><path d="M37.522 726.489 57.9944 726.489 57.9944 746.955 37.522 746.955Z" fill="#F8CBAD" fill-rule="evenodd"/><path d="M57.9944 726.489 78.4669 726.489 78.4669 746.955 57.9944 746.955Z" fill="#FBE5D6" fill-rule="evenodd"/><path d="M78.4669 726.489 98.9393 726.489 98.9393 746.955 78.4669 746.955Z" fill="#FBE5D6" fill-rule="evenodd"/><path d="M98.9393 726.489 119.412 726.489 119.412 746.955 98.9393 746.955Z" fill="#FBE5D6" fill-rule="evenodd"/><path d="M119.412 726.489 139.884 726.489 139.884 746.955 119.412 746.955Z" fill="#FBE5D6" fill-rule="evenodd"/><path d="M139.884 726.489 160.357 726.489 160.357 746.955 139.884 746.955Z" fill="#FBE5D6" fill-rule="evenodd"/><path d="M160.357 726.489 180.829 726.489 180.829 746.955 160.357 746.955Z" fill="#FBE5D6" fill-rule="evenodd"/><path d="M180.829 726.489 201.302 726.489 201.302 746.955 180.829 746.955Z" fill="#FBE5D6" fill-rule="evenodd"/><path d="M201.302 726.489 221.774 726.489 221.774 746.955 201.302 746.955Z" fill="#FBE5D6" fill-rule="evenodd"/><path d="M221.774 726.489 242.246 726.489 242.246 746.955 221.774 746.955Z" fill="#FBE5D6" fill-rule="evenodd"/><path d="M242.246 726.489 262.719 726.489 262.719 746.955 242.246 746.955Z" fill="#FBE5D6" fill-rule="evenodd"/><path d="M262.719 726.489 283.191 726.489 283.191 746.955 262.719 746.955Z" fill="#F8CBAD" fill-rule="evenodd"/><path d="M37.522 746.955 57.9944 746.955 57.9944 767.421 37.522 767.421Z" fill="#FBE5D6" fill-rule="evenodd"/><path d="M57.9944 746.955 78.4669 746.955 78.4669 767.421 57.9944 767.421Z" fill="#FBE5D6" fill-rule="evenodd"/><path d="M78.4669 746.955 98.9393 746.955 98.9393 767.421 78.4669 767.421Z" fill="#F8CBAD" fill-rule="evenodd"/><path d="M98.9393 746.955 119.412 746.955 119.412 767.421 98.9393 767.421Z" fill="#FBE5D6" fill-rule="evenodd"/><path d="M119.412 746.955 139.884 746.955 139.884 767.421 119.412 767.421Z" fill="#FBE5D6" fill-rule="evenodd"/><path d="M139.884 746.955 160.357 746.955 160.357 767.421 139.884 767.421Z" fill="#843C0C" fill-rule="evenodd"/><path d="M160.357 746.955 180.829 746.955 180.829 767.421 160.357 767.421Z" fill="#FBE5D6" fill-rule="evenodd"/><path d="M180.829 746.955 201.302 746.955 201.302 767.421 180.829 767.421Z" fill="#F8CBAD" fill-rule="evenodd"/><path d="M201.302 746.955 221.774 746.955 221.774 767.421 201.302 767.421Z" fill="#FBE5D6" fill-rule="evenodd"/><path d="M221.774 746.955 242.246 746.955 242.246 767.421 221.774 767.421Z" fill="#FBE5D6" fill-rule="evenodd"/><path d="M242.246 746.955 262.719 746.955 262.719 767.421 242.246 767.421Z" fill="#FBE5D6" fill-rule="evenodd"/><path d="M262.719 746.955 283.191 746.955 283.191 767.421 262.719 767.421Z" fill="#F8CBAD" fill-rule="evenodd"/><path d="M57.9944 521.163 57.9944 768.088" stroke="#FFFFFF" stroke-width="1.33333" stroke-linejoin="round" stroke-miterlimit="10" fill="none" fill-rule="evenodd"/><path d="M78.4669 521.163 78.4669 768.088" stroke="#FFFFFF" stroke-width="1.33333" stroke-linejoin="round" stroke-miterlimit="10" fill="none" fill-rule="evenodd"/><path d="M98.9393 521.163 98.9393 768.088" stroke="#FFFFFF" stroke-width="1.33333" stroke-linejoin="round" stroke-miterlimit="10" fill="none" fill-rule="evenodd"/><path d="M119.412 521.163 119.412 768.088" stroke="#FFFFFF" stroke-width="1.33333" stroke-linejoin="round" stroke-miterlimit="10" fill="none" fill-rule="evenodd"/><path d="M139.884 521.163 139.884 768.088" stroke="#FFFFFF" stroke-width="1.33333" stroke-linejoin="round" stroke-miterlimit="10" fill="none" fill-rule="evenodd"/><path d="M160.357 521.163 160.357 768.088" stroke="#FFFFFF" stroke-width="1.33333" stroke-linejoin="round" stroke-miterlimit="10" fill="none" fill-rule="evenodd"/><path d="M180.829 521.163 180.829 768.088" stroke="#FFFFFF" stroke-width="1.33333" stroke-linejoin="round" stroke-miterlimit="10" fill="none" fill-rule="evenodd"/><path d="M201.302 521.163 201.302 768.088" stroke="#FFFFFF" stroke-width="1.33333" stroke-linejoin="round" stroke-miterlimit="10" fill="none" fill-rule="evenodd"/><path d="M221.774 521.163 221.774 768.088" stroke="#FFFFFF" stroke-width="1.33333" stroke-linejoin="round" stroke-miterlimit="10" fill="none" fill-rule="evenodd"/><path d="M242.246 521.163 242.246 768.088" stroke="#FFFFFF" stroke-width="1.33333" stroke-linejoin="round" stroke-miterlimit="10" fill="none" fill-rule="evenodd"/><path d="M262.719 521.163 262.719 768.088" stroke="#FFFFFF" stroke-width="1.33333" stroke-linejoin="round" stroke-miterlimit="10" fill="none" fill-rule="evenodd"/><path d="M36.8553 542.296 283.858 542.296" stroke="#FFFFFF" stroke-width="1.33333" stroke-linejoin="round" stroke-miterlimit="10" fill="none" fill-rule="evenodd"/><path d="M36.8553 562.762 283.858 562.762" stroke="#FFFFFF" stroke-width="1.33333" stroke-linejoin="round" stroke-miterlimit="10" fill="none" fill-rule="evenodd"/><path d="M36.8553 583.228 283.858 583.228" stroke="#FFFFFF" stroke-width="1.33333" stroke-linejoin="round" stroke-miterlimit="10" fill="none" fill-rule="evenodd"/><path d="M36.8553 603.693 283.858 603.693" stroke="#FFFFFF" stroke-width="1.33333" stroke-linejoin="round" stroke-miterlimit="10" fill="none" fill-rule="evenodd"/><path d="M36.8553 624.159 283.858 624.159" stroke="#FFFFFF" stroke-width="1.33333" stroke-linejoin="round" stroke-miterlimit="10" fill="none" fill-rule="evenodd"/><path d="M36.8553 644.625 283.858 644.625" stroke="#FFFFFF" stroke-width="1.33333" stroke-linejoin="round" stroke-miterlimit="10" fill="none" fill-rule="evenodd"/><path d="M36.8553 665.091 283.858 665.091" stroke="#FFFFFF" stroke-width="1.33333" stroke-linejoin="round" stroke-miterlimit="10" fill="none" fill-rule="evenodd"/><path d="M36.8553 685.557 283.858 685.557" stroke="#FFFFFF" stroke-width="1.33333" stroke-linejoin="round" stroke-miterlimit="10" fill="none" fill-rule="evenodd"/><path d="M36.8553 706.023 283.858 706.023" stroke="#FFFFFF" stroke-width="1.33333" stroke-linejoin="round" stroke-miterlimit="10" fill="none" fill-rule="evenodd"/><path d="M36.8553 726.489 283.858 726.489" stroke="#FFFFFF" stroke-width="1.33333" stroke-linejoin="round" stroke-miterlimit="10" fill="none" fill-rule="evenodd"/><path d="M36.8553 746.955 283.858 746.955" stroke="#FFFFFF" stroke-width="1.33333" stroke-linejoin="round" stroke-miterlimit="10" fill="none" fill-rule="evenodd"/><path d="M37.522 521.163 37.522 768.088" stroke="#FFFFFF" stroke-width="1.33333" stroke-linejoin="round" stroke-miterlimit="10" fill="none" fill-rule="evenodd"/><path d="M283.191 521.163 283.191 768.088" stroke="#FFFFFF" stroke-width="1.33333" stroke-linejoin="round" stroke-miterlimit="10" fill="none" fill-rule="evenodd"/><path d="M36.8553 521.83 283.858 521.83" stroke="#FFFFFF" stroke-width="1.33333" stroke-linejoin="round" stroke-miterlimit="10" fill="none" fill-rule="evenodd"/><path d="M36.8553 767.421 283.858 767.421" stroke="#FFFFFF" stroke-width="1.33333" stroke-linejoin="round" stroke-miterlimit="10" fill="none" fill-rule="evenodd"/><path d="M1065.5 821.741C1065.5 817.6 1068.86 814.244 1073 814.244 1077.14 814.244 1080.5 817.6 1080.5 821.741 1080.5 825.882 1077.14 829.239 1073 829.239 1068.86 829.239 1065.5 825.882 1065.5 821.741Z" stroke="#ED7D31" stroke-width="1.33333" stroke-miterlimit="8" fill="#F4B183" fill-rule="evenodd"/><path d="M1057.5 924.709C1057.5 920.568 1061.08 917.211 1065.5 917.211 1069.92 917.211 1073.5 920.568 1073.5 924.709 1073.5 928.85 1069.92 932.206 1065.5 932.206 1061.08 932.206 1057.5 928.85 1057.5 924.709Z" stroke="#ED7D31" stroke-width="1.33333" stroke-miterlimit="8" fill="#F4B183" fill-rule="evenodd"/><path d="M980.5 810.745C980.5 806.604 983.858 803.247 988 803.247 992.142 803.247 995.5 806.604 995.5 810.745 995.5 814.885 992.142 818.242 988 818.242 983.858 818.242 980.5 814.885 980.5 810.745Z" stroke="#4472C4" stroke-width="1.33333" stroke-miterlimit="8" fill="#8FAADC" fill-rule="evenodd"/><path d="M991.5 932.706C991.5 928.565 994.858 925.209 999 925.209 1003.14 925.209 1006.5 928.565 1006.5 932.706 1006.5 936.847 1003.14 940.204 999 940.204 994.858 940.204 991.5 936.847 991.5 932.706Z" stroke="#4472C4" stroke-width="1.33333" stroke-miterlimit="8" fill="#8FAADC" fill-rule="evenodd"/><path d="M940.5 871.725C940.5 867.585 943.858 864.228 948 864.228 952.142 864.228 955.5 867.585 955.5 871.725 955.5 875.866 952.142 879.223 948 879.223 943.858 879.223 940.5 875.866 940.5 871.725Z" stroke="#4472C4" stroke-width="1.33333" stroke-miterlimit="8" fill="#8FAADC" fill-rule="evenodd"/><path d="M1158.5 926.708C1158.5 922.567 1161.86 919.21 1166 919.21 1170.14 919.21 1173.5 922.567 1173.5 926.708 1173.5 930.849 1170.14 934.206 1166 934.206 1161.86 934.206 1158.5 930.849 1158.5 926.708Z" stroke="#70AD47" stroke-width="1.33333" stroke-miterlimit="8" fill="#A9D18E" fill-rule="evenodd"/><path d="M1089.5 851.732C1089.5 847.591 1092.86 844.234 1097 844.234 1101.14 844.234 1104.5 847.591 1104.5 851.732 1104.5 855.873 1101.14 859.229 1097 859.229 1092.86 859.229 1089.5 855.873 1089.5 851.732Z" stroke="#ED7D31" stroke-width="1.33333" stroke-miterlimit="8" fill="#F4B183" fill-rule="evenodd"/><path d="M1129.5 871.725C1129.5 867.585 1132.86 864.228 1137 864.228 1141.14 864.228 1144.5 867.585 1144.5 871.725 1144.5 875.866 1141.14 879.223 1137 879.223 1132.86 879.223 1129.5 875.866 1129.5 871.725Z" stroke="#70AD47" stroke-width="1.33333" stroke-miterlimit="8" fill="#A9D18E" fill-rule="evenodd"/><path d="M1198.5 841.735C1198.5 837.594 1201.86 834.237 1206 834.237 1210.14 834.237 1213.5 837.594 1213.5 841.735 1213.5 845.876 1210.14 849.233 1206 849.233 1201.86 849.233 1198.5 845.876 1198.5 841.735Z" stroke="#70AD47" stroke-width="1.33333" stroke-miterlimit="8" fill="#A9D18E" fill-rule="evenodd"/><path d="M0 0 29.3381 50.7705" stroke="#404040" stroke-width="3.33228" stroke-miterlimit="8" stroke-opacity="0.701961" fill="none" fill-rule="evenodd" transform="matrix(-1.00032 0 0 1 981.847 816.243)"/><path d="M1068.19 815.946 995.5 810.245" stroke="#404040" stroke-width="3.33333" stroke-miterlimit="8" stroke-opacity="0.701961" fill="none" fill-rule="evenodd"/><path d="M952.5 877.224 993.318 926.725" stroke="#404040" stroke-width="3.33333" stroke-miterlimit="8" stroke-opacity="0.701961" fill="none" fill-rule="evenodd"/><path d="M0 0 16.0697 26.7206" stroke="#404040" stroke-width="3.33228" stroke-miterlimit="8" stroke-opacity="0.701961" fill="none" fill-rule="evenodd" transform="matrix(-1.00032 0 0 1 1067.57 827.239)"/><path d="M0 0 51.256 7.56203" stroke="#404040" stroke-width="3.33228" stroke-miterlimit="8" stroke-opacity="0.701961" fill="none" fill-rule="evenodd" transform="matrix(-1.00032 0 0 1 1057.77 925.209)"/><path d="M0 0 61.024 42.1953" stroke="#404040" stroke-width="3.33228" stroke-miterlimit="8" stroke-opacity="0.701961" fill="none" fill-rule="evenodd" transform="matrix(1.00032 0 0 -1 1070.5 919.419)"/><path d="M1142.5 877.224 1160.98 921.638" stroke="#404040" stroke-width="3.33333" stroke-miterlimit="8" stroke-opacity="0.701961" fill="none" fill-rule="evenodd"/><path d="M1161.5 932.771 1073.5 925.209" stroke="#404040" stroke-width="3.33333" stroke-miterlimit="8" stroke-opacity="0.701961" fill="none" fill-rule="evenodd"/><path d="M0 0 69.0125 28.3341" stroke="#404040" stroke-width="3.33228" stroke-miterlimit="8" stroke-opacity="0.701961" fill="none" fill-rule="evenodd" transform="matrix(1.00032 0 0 -1 1078.5 816.586)"/><path d="M1091.4 846.289 1078.5 827.239" stroke="#404040" stroke-width="3.33333" stroke-miterlimit="8" stroke-opacity="0.701961" fill="none" fill-rule="evenodd"/><path d="M0 0 25.9762 60.4016" stroke="#404040" stroke-width="3.33228" stroke-miterlimit="8" stroke-opacity="0.701961" fill="none" fill-rule="evenodd" transform="matrix(-1.00032 0 0 1 1096.48 859.229)"/><path d="M0 0 32.0999 4.54062" stroke="#404040" stroke-width="3.33228" stroke-miterlimit="8" stroke-opacity="0.701961" fill="none" fill-rule="evenodd" transform="matrix(1.00032 0 0 -1 1059.5 861.771)"/><path d="M0 0 47.6389 52.7273" stroke="#404040" stroke-width="3.33228" stroke-miterlimit="8" stroke-opacity="0.701961" fill="none" fill-rule="evenodd" transform="matrix(-1.00032 0 0 1 1150.15 793.25)"/><path d="M1162.5 788.252 1200.4 836.93" stroke="#404040" stroke-width="3.33333" stroke-miterlimit="8" stroke-opacity="0.701961" fill="none" fill-rule="evenodd"/><path d="M1130 872.306 1102.5 857.23" stroke="#404040" stroke-width="3.33333" stroke-miterlimit="8" stroke-opacity="0.701961" fill="none" fill-rule="evenodd"/><path d="M0 0 34.2207 72.0129" stroke="#404040" stroke-width="3.33228" stroke-miterlimit="8" stroke-opacity="0.701961" fill="none" fill-rule="evenodd" transform="matrix(-1.00032 0 0 1 1205.73 849.232)"/><path d="M0 0 55.8244 24.4688" stroke="#404040" stroke-width="3.33228" stroke-miterlimit="8" stroke-opacity="0.701961" fill="none" fill-rule="evenodd" transform="matrix(1.00032 0 0 -1 1144.5 871.702)"/><path d="M1147.5 787.752C1147.5 783.611 1150.86 780.254 1155 780.254 1159.14 780.254 1162.5 783.611 1162.5 787.752 1162.5 791.893 1159.14 795.25 1155 795.25 1150.86 795.25 1147.5 791.893 1147.5 787.752Z" stroke="#70AD47" stroke-width="1.33333" stroke-miterlimit="8" fill="#A9D18E" fill-rule="evenodd"/><path d="M0 0 17.9344 68.7203" stroke="#404040" stroke-width="3.33228" stroke-miterlimit="8" stroke-opacity="0.701961" fill="none" fill-rule="evenodd" transform="matrix(-1.00032 0 0 1 1155.44 795.25)"/><path d="M987.5 842.734C987.5 838.594 990.858 835.237 995 835.237 999.142 835.237 1002.5 838.594 1002.5 842.734 1002.5 846.875 999.142 850.232 995 850.232 990.858 850.232 987.5 846.875 987.5 842.734Z" stroke="#4472C4" stroke-width="1.33333" stroke-miterlimit="8" fill="#8FAADC" fill-rule="evenodd"/><path d="M1044.5 861.729C1044.5 857.588 1047.86 854.231 1052 854.231 1056.14 854.231 1059.5 857.588 1059.5 861.729 1059.5 865.869 1056.14 869.226 1052 869.226 1047.86 869.226 1044.5 865.869 1044.5 861.729Z" stroke="#ED7D31" stroke-width="1.33333" stroke-miterlimit="8" fill="#F4B183" fill-rule="evenodd"/><path d="M1051.5 869.226 1059.84 919.744" stroke="#404040" stroke-width="3.33333" stroke-miterlimit="8" stroke-opacity="0.701961" fill="none" fill-rule="evenodd"/><path d="M992.5 816.243 994.714 835.165" stroke="#404040" stroke-width="3.33333" stroke-miterlimit="8" stroke-opacity="0.701961" fill="none" fill-rule="evenodd"/><path d="M0 0 34.6815 24.2916" stroke="#404040" stroke-width="3.33228" stroke-miterlimit="8" stroke-opacity="0.701961" fill="none" fill-rule="evenodd" transform="matrix(1.00032 0 0 -1 955.5 872.524)"/><path d="M999.412 924.942 995.5 850.232" stroke="#404040" stroke-width="3.33333" stroke-miterlimit="8" stroke-opacity="0.701961" fill="none" fill-rule="evenodd"/><path d="M0 0 65.1124 15.4341" stroke="#404040" stroke-width="3.33228" stroke-miterlimit="8" stroke-opacity="0.701961" fill="none" fill-rule="evenodd" transform="matrix(1.00032 0 0 -1 1002.5 842.674)"/><path d="M1000.5 848.233 1057.9 925.15" stroke="#404040" stroke-width="3.33333" stroke-miterlimit="8" stroke-opacity="0.701961" fill="none" fill-rule="evenodd"/><path d="M0 0 7.73268 87.9249" stroke="#404040" stroke-width="3.33228" stroke-miterlimit="8" stroke-opacity="0.701961" fill="none" fill-rule="evenodd" transform="matrix(-1.00032 0 0 1 1073.24 829.239)"/><path d="M1000.5 848.233 1044.21 861.733" stroke="#404040" stroke-width="3.33333" stroke-miterlimit="8" stroke-opacity="0.701961" fill="none" fill-rule="evenodd"/><path d="M923.829 873.002C920.496 846.239 943.158 805.592 961.821 790.704 980.483 775.817 1013.14 780.166 1035.8 783.679 1058.47 787.192 1085.13 796.392 1097.79 811.781 1110.46 827.17 1116.79 852.763 1111.79 876.013 1106.79 899.264 1090.63 937.904 1067.8 951.286 1044.97 964.668 1005.81 964.333 981.816 951.286 957.822 938.239 927.161 899.766 923.829 873.002Z" stroke="#4472C4" stroke-width="1.33333" stroke-miterlimit="8" fill="#4472C4" fill-rule="evenodd" fill-opacity="0.14902"/><path d="M1060.75 792.057C1082.6 776.783 1129.65 751.049 1156.84 757.192 1184.03 763.335 1219.73 798.034 1223.9 828.915 1228.07 859.796 1210.22 924.712 1181.86 942.476 1153.5 960.241 1082.27 951.11 1053.75 935.503 1027.22 919.897 1024.55 872.745 1025.72 848.838 1026.89 824.93 1038.9 807.331 1060.75 792.057Z" stroke="#70AD47" stroke-width="1.33333" stroke-miterlimit="8" fill="#70AD47" fill-rule="evenodd" fill-opacity="0.14902"/><path d="M848.504 239.694 874.961 239.694 874.961 266.142 848.504 266.142Z" fill="#8FAADC" fill-rule="evenodd"/><path d="M874.961 239.694 901.417 239.694 901.417 266.142 874.961 266.142Z" fill="#FBE5D6" fill-rule="evenodd"/><path d="M848.504 266.142 874.961 266.142 874.961 292.591 848.504 292.591Z" fill="#FBE5D6" fill-rule="evenodd"/><path d="M874.961 266.142 901.417 266.142 901.417 292.591 874.961 292.591Z" fill="#C5E0B4" fill-rule="evenodd"/><path d="M848.504 292.591 874.961 292.591 874.961 319.039 848.504 319.039Z" fill="#FBE5D6" fill-rule="evenodd"/><path d="M874.961 292.591 901.417 292.591 901.417 319.039 874.961 319.039Z" fill="#C5E0B4" fill-rule="evenodd"/><path d="M848.504 319.039 874.961 319.039 874.961 345.487 848.504 345.487Z" fill="#B4C7E7" fill-rule="evenodd"/><path d="M874.961 319.039 901.417 319.039 901.417 345.487 874.961 345.487Z" fill="#FBE5D6" fill-rule="evenodd"/><path d="M848.504 345.487 874.961 345.487 874.961 371.936 848.504 371.936Z" fill="#B4C7E7" fill-rule="evenodd"/><path d="M874.961 345.487 901.417 345.487 901.417 371.936 874.961 371.936Z" fill="#548235" fill-rule="evenodd"/><path d="M848.504 371.936 874.961 371.936 874.961 398.384 848.504 398.384Z" fill="#2F5597" fill-rule="evenodd"/><path d="M874.961 371.936 901.417 371.936 901.417 398.384 874.961 398.384Z" fill="#A9D18E" fill-rule="evenodd"/><path d="M848.504 398.384 874.961 398.384 874.961 424.832 848.504 424.832Z" fill="#2F5597" fill-rule="evenodd"/><path d="M874.961 398.384 901.417 398.384 901.417 424.832 874.961 424.832Z" fill="#FBE5D6" fill-rule="evenodd"/><path d="M848.504 424.832 874.961 424.832 874.961 451.281 848.504 451.281Z" fill="#FBE5D6" fill-rule="evenodd"/><path d="M874.961 424.832 901.417 424.832 901.417 451.281 874.961 451.281Z" fill="#70AD47" fill-rule="evenodd"/><path d="M848.504 451.281 874.961 451.281 874.961 477.729 848.504 477.729Z" fill="#B4C7E7" fill-rule="evenodd"/><path d="M874.961 451.281 901.417 451.281 901.417 477.729 874.961 477.729Z" fill="#548235" fill-rule="evenodd"/><path d="M848.504 477.729 874.961 477.729 874.961 504.178 848.504 504.178Z" fill="#8FAADC" fill-rule="evenodd"/><path d="M874.961 477.729 901.417 477.729 901.417 504.178 874.961 504.178Z" fill="#FBE5D6" fill-rule="evenodd"/><path d="M848.504 504.178 874.961 504.178 874.961 530.626 848.504 530.626Z" fill="#B4C7E7" fill-rule="evenodd"/><path d="M874.961 504.178 901.417 504.178 901.417 530.626 874.961 530.626Z" fill="#C5E0B4" fill-rule="evenodd"/><path d="M848.504 530.626 874.961 530.626 874.961 557.074 848.504 557.074Z" fill="#FBE5D6" fill-rule="evenodd"/><path d="M874.961 530.626 901.417 530.626 901.417 557.074 874.961 557.074Z" fill="#C5E0B4" fill-rule="evenodd"/><path d="M874.961 237.695 874.961 559.074" stroke="#FFFFFF" stroke-width="4" stroke-linejoin="round" stroke-miterlimit="10" fill="none" fill-rule="evenodd"/><path d="M846.504 266.142 903.417 266.142" stroke="#FFFFFF" stroke-width="4" stroke-linejoin="round" stroke-miterlimit="10" fill="none" fill-rule="evenodd"/><path d="M846.504 292.591 903.417 292.591" stroke="#FFFFFF" stroke-width="4" stroke-linejoin="round" stroke-miterlimit="10" fill="none" fill-rule="evenodd"/><path d="M846.504 319.039 903.417 319.039" stroke="#FFFFFF" stroke-width="4" stroke-linejoin="round" stroke-miterlimit="10" fill="none" fill-rule="evenodd"/><path d="M846.504 345.487 903.417 345.487" stroke="#FFFFFF" stroke-width="4" stroke-linejoin="round" stroke-miterlimit="10" fill="none" fill-rule="evenodd"/><path d="M846.504 371.936 903.417 371.936" stroke="#FFFFFF" stroke-width="4" stroke-linejoin="round" stroke-miterlimit="10" fill="none" fill-rule="evenodd"/><path d="M846.504 398.384 903.417 398.384" stroke="#FFFFFF" stroke-width="4" stroke-linejoin="round" stroke-miterlimit="10" fill="none" fill-rule="evenodd"/><path d="M846.504 424.832 903.417 424.832" stroke="#FFFFFF" stroke-width="4" stroke-linejoin="round" stroke-miterlimit="10" fill="none" fill-rule="evenodd"/><path d="M846.504 451.281 903.417 451.281" stroke="#FFFFFF" stroke-width="4" stroke-linejoin="round" stroke-miterlimit="10" fill="none" fill-rule="evenodd"/><path d="M846.504 477.729 903.417 477.729" stroke="#FFFFFF" stroke-width="4" stroke-linejoin="round" stroke-miterlimit="10" fill="none" fill-rule="evenodd"/><path d="M846.504 504.178 903.417 504.178" stroke="#FFFFFF" stroke-width="4" stroke-linejoin="round" stroke-miterlimit="10" fill="none" fill-rule="evenodd"/><path d="M846.504 530.626 903.417 530.626" stroke="#FFFFFF" stroke-width="4" stroke-linejoin="round" stroke-miterlimit="10" fill="none" fill-rule="evenodd"/><path d="M848.504 237.695 848.504 559.074" stroke="#FFFFFF" stroke-width="4" stroke-linejoin="round" stroke-miterlimit="10" fill="none" fill-rule="evenodd"/><path d="M901.417 237.695 901.417 559.074" stroke="#FFFFFF" stroke-width="4" stroke-linejoin="round" stroke-miterlimit="10" fill="none" fill-rule="evenodd"/><path d="M846.504 239.694 903.417 239.694" stroke="#FFFFFF" stroke-width="4" stroke-linejoin="round" stroke-miterlimit="10" fill="none" fill-rule="evenodd"/><path d="M846.504 557.074 903.417 557.074" stroke="#FFFFFF" stroke-width="4" stroke-linejoin="round" stroke-miterlimit="10" fill="none" fill-rule="evenodd"/><path d="M459.5 376.381C459.5 371.412 463.53 367.384 468.5 367.384 473.471 367.384 477.5 371.412 477.5 376.381 477.5 381.35 473.471 385.379 468.5 385.379 463.53 385.379 459.5 381.35 459.5 376.381Z" stroke="#C55A11" stroke-width="1.33333" stroke-miterlimit="8" fill="#F4B183" fill-rule="evenodd"/><path d="M450.5 498.343C450.5 493.374 454.306 489.346 459 489.346 463.694 489.346 467.5 493.374 467.5 498.343 467.5 503.312 463.694 507.34 459 507.34 454.306 507.34 450.5 503.312 450.5 498.343Z" stroke="#C55A11" stroke-width="1.33333" stroke-miterlimit="8" fill="#F4B183" fill-rule="evenodd"/><path d="M357.5 363.386C357.5 358.417 361.53 354.388 366.5 354.388 371.471 354.388 375.5 358.417 375.5 363.386 375.5 368.355 371.471 372.383 366.5 372.383 361.53 372.383 357.5 368.355 357.5 363.386Z" stroke="#C55A11" stroke-width="1.33333" stroke-miterlimit="8" fill="#F4B183" fill-rule="evenodd"/><path d="M371.5 507.34C371.5 502.371 375.53 498.343 380.5 498.343 385.471 498.343 389.5 502.371 389.5 507.34 389.5 512.309 385.471 516.337 380.5 516.337 375.53 516.337 371.5 512.309 371.5 507.34Z" stroke="#C55A11" stroke-width="1.33333" stroke-miterlimit="8" fill="#F4B183" fill-rule="evenodd"/><path d="M310.5 436.363C310.5 431.394 314.53 427.365 319.5 427.365 324.471 427.365 328.5 431.394 328.5 436.363 328.5 441.332 324.471 445.36 319.5 445.36 314.53 445.36 310.5 441.332 310.5 436.363Z" stroke="#C55A11" stroke-width="1.33333" stroke-miterlimit="8" fill="#F4B183" fill-rule="evenodd"/><path d="M569.5 501.342C569.5 496.373 573.529 492.345 578.5 492.345 583.471 492.345 587.5 496.373 587.5 501.342 587.5 506.311 583.471 510.339 578.5 510.339 573.529 510.339 569.5 506.311 569.5 501.342Z" stroke="#C55A11" stroke-width="1.33333" stroke-miterlimit="8" fill="#F4B183" fill-rule="evenodd"/><path d="M487.5 411.37C487.5 406.401 491.53 402.373 496.5 402.373 501.471 402.373 505.5 406.401 505.5 411.37 505.5 416.339 501.471 420.368 496.5 420.368 491.53 420.368 487.5 416.339 487.5 411.37Z" stroke="#C55A11" stroke-width="1.33333" stroke-miterlimit="8" fill="#F4B183" fill-rule="evenodd"/><path d="M535.5 436.363C535.5 431.394 539.306 427.365 544 427.365 548.694 427.365 552.5 431.394 552.5 436.363 552.5 441.332 548.694 445.36 544 445.36 539.306 445.36 535.5 441.332 535.5 436.363Z" stroke="#70AD47" stroke-width="1.33333" stroke-miterlimit="8" fill="#A9D18E" fill-rule="evenodd"/><path d="M616.5 400.374C616.5 395.405 620.529 391.377 625.5 391.377 630.471 391.377 634.5 395.405 634.5 400.374 634.5 405.343 630.471 409.371 625.5 409.371 620.529 409.371 616.5 405.343 616.5 400.374Z" stroke="#C55A11" stroke-width="1.33333" stroke-miterlimit="8" fill="#F4B183" fill-rule="evenodd"/><path d="M0 0 34.7727 60.1752" stroke="#404040" stroke-width="3.33228" stroke-miterlimit="8" stroke-opacity="0.501961" fill="none" fill-rule="evenodd" transform="matrix(-1.00032 0 0 1 360.284 369.384)"/><path d="M461.657 370.143 375.5 363.386" stroke="#404040" stroke-width="3.33333" stroke-miterlimit="8" stroke-opacity="0.501961" fill="none" fill-rule="evenodd"/><path d="M325.5 442.361 373.879 501.031" stroke="#404040" stroke-width="3.33333" stroke-miterlimit="8" stroke-opacity="0.501961" fill="none" fill-rule="evenodd"/><path d="M0 0 19.0464 31.6703" stroke="#404040" stroke-width="3.33228" stroke-miterlimit="8" stroke-opacity="0.501961" fill="none" fill-rule="evenodd" transform="matrix(-1.00032 0 0 1 461.552 382.38)"/><path d="M0 0 60.7506 8.96285" stroke="#404040" stroke-width="3.33228" stroke-miterlimit="8" stroke-opacity="0.501961" fill="none" fill-rule="evenodd" transform="matrix(-1.00032 0 0 1 450.27 498.343)"/><path d="M571.8 507.306 467.5 498.343" stroke="#404040" stroke-width="3.33333" stroke-miterlimit="8" stroke-opacity="0.501961" fill="none" fill-rule="evenodd"/><path d="M0 0 81.7964 33.5827" stroke="#404040" stroke-width="3.33228" stroke-miterlimit="8" stroke-opacity="0.501961" fill="none" fill-rule="evenodd" transform="matrix(1.00032 0 0 -1 474.5 369.977)"/><path d="M489.795 404.958 474.5 382.38" stroke="#404040" stroke-width="3.33333" stroke-miterlimit="8" stroke-opacity="0.501961" fill="none" fill-rule="evenodd"/><path d="M0 0 30.788 71.5904" stroke="#404040" stroke-width="3.33228" stroke-miterlimit="8" stroke-opacity="0.501961" fill="none" fill-rule="evenodd" transform="matrix(-1.00032 0 0 1 496.298 420.368)"/><path d="M0 0 38.0461 5.38172" stroke="#404040" stroke-width="3.33228" stroke-miterlimit="8" stroke-opacity="0.501961" fill="none" fill-rule="evenodd" transform="matrix(1.00032 0 0 -1 451.5 423.75)"/><path d="M574.5 336.394 619.423 394.089" stroke="#404040" stroke-width="3.33333" stroke-miterlimit="8" stroke-opacity="0.501961" fill="none" fill-rule="evenodd"/><path d="M0 0 40.5597 85.3526" stroke="#404040" stroke-width="3.33228" stroke-miterlimit="8" stroke-opacity="0.501961" fill="none" fill-rule="evenodd" transform="matrix(-1.00032 0 0 1 625.073 409.371)"/><path d="M556.5 336.394C556.5 331.425 560.529 327.397 565.5 327.397 570.471 327.397 574.5 331.425 574.5 336.394 574.5 341.363 570.471 345.391 565.5 345.391 560.529 345.391 556.5 341.363 556.5 336.394Z" stroke="#C55A11" stroke-width="1.33333" stroke-miterlimit="8" fill="#F4B183" fill-rule="evenodd"/><path d="M366.5 401.374C366.5 396.405 370.53 392.376 375.5 392.376 380.471 392.376 384.5 396.405 384.5 401.374 384.5 406.343 380.471 410.371 375.5 410.371 370.53 410.371 366.5 406.343 366.5 401.374Z" stroke="#70AD47" stroke-width="1.33333" stroke-miterlimit="8" fill="#A9D18E" fill-rule="evenodd"/><path d="M433.5 423.367C433.5 418.398 437.53 414.37 442.5 414.37 447.471 414.37 451.5 418.398 451.5 423.367 451.5 428.336 447.471 432.364 442.5 432.364 437.53 432.364 433.5 428.336 433.5 423.367Z" stroke="#C55A11" stroke-width="1.33333" stroke-miterlimit="8" fill="#F4B183" fill-rule="evenodd"/><path d="M442.5 432.364 452.385 492.239" stroke="#404040" stroke-width="3.33333" stroke-miterlimit="8" stroke-opacity="0.501961" fill="none" fill-rule="evenodd"/><path d="M0 0 9.16509 104.212" stroke="#404040" stroke-width="3.33228" stroke-miterlimit="8" stroke-opacity="0.501961" fill="none" fill-rule="evenodd" transform="matrix(-1.00032 0 0 1 468.668 385.379)"/><path d="M1.06564-2.07495 34.42 15.055 32.2887 19.2049-1.06564 2.07495ZM34.4763 9.83942 43.7291 22.4581 28.0825 22.2891Z" fill="#ED7D31" fill-opacity="0.8" transform="matrix(1.00032 0 0 -1 325.5 429.83)"/><path d="M377.806 499.041 373.78 422.14 378.44 421.896 382.467 498.798ZM369.241 424.713 375.5 410.371 383.222 423.981Z" fill="#ED7D31" fill-opacity="0.8"/><path d="M368.818 372.112 370.086 382.955 365.451 383.497 364.183 372.654ZM374.45 380.096 369.124 394.81 360.545 381.722Z" fill="#ED7D31" fill-opacity="0.8"/><path d="M0.731645-2.21488 64.2078 18.7533 62.7445 23.183-0.731645 2.21488ZM63.4562 13.5918 74.5506 24.6264 59.0663 26.8811Z" fill="#ED7D31" fill-opacity="0.8" transform="matrix(-1.00032 0 0 1 459.074 376.381)"/><path d="M451.361 493.697 388.172 417.827 391.758 414.842 454.947 490.712ZM386.079 422.605 382.5 407.372 396.837 413.65Z" fill="#ED7D31" fill-opacity="0.8"/><path d="M433.622 425.601 392.958 413.043 394.336 408.586 434.999 421.144ZM393.81 418.189 382.5 407.372 397.942 404.817Z" fill="#ED7D31" fill-opacity="0.8"/><path d="M2.257-0.589027 20.5685 69.576 16.0545 70.7541-2.257 0.589027ZM24.4935 66.1409 21.2566 81.45 10.9514 69.6751Z" fill="#ED7D31" fill-opacity="0.8" transform="matrix(-1.00032 0 0 1 565.763 345.391)"/><path d="M0.730055-2.21541 58.4415 16.8025 56.9814 21.2334-0.730055 2.21541ZM57.6862 11.6417 68.7885 22.6682 53.3059 24.9341Z" fill="#ED7D31" fill-opacity="0.8" transform="matrix(-1.00032 0 0 1 619.31 407.372)"/><path d="M570.706 496.524 548.202 456.663 552.266 454.37 574.77 494.231ZM545.285 460.988 544.5 445.36 557.477 454.109Z" fill="#ED7D31" fill-opacity="0.8"/><path d="M1.46636-1.81405 62.101 47.199 59.1682 50.8271-1.46636 1.81405ZM63.2196 42.1045 69.7049 56.3449 54.4214 52.9889Z" fill="#ED7D31" fill-opacity="0.8" transform="matrix(1.00032 0 0 -1 467.5 498.706)"/><path d="M503.622 416.323 525.987 428.584 523.743 432.674 501.378 420.413ZM526.185 423.372 535.094 436.237 519.453 435.643Z" fill="#ED7D31" fill-opacity="0.8"/><path d="M0 0 56.4635 62.4945" stroke="#404040" stroke-width="3.33228" stroke-miterlimit="8" stroke-opacity="0.501961" fill="none" fill-rule="evenodd" transform="matrix(1.00032 0 0 -1 502.5 405.886)"/><path d="M501.5 965.696C501.5 961.555 504.858 958.198 509 958.198 513.142 958.198 516.5 961.555 516.5 965.696 516.5 969.837 513.142 973.193 509 973.193 504.858 973.193 501.5 969.837 501.5 965.696Z" stroke="#4472C4" stroke-width="1.33333" stroke-miterlimit="8" fill="#8FAADC" fill-rule="evenodd"/><path d="M537.5 963.696C537.5 959.556 540.858 956.199 545 956.199 549.142 956.199 552.5 959.556 552.5 963.696 552.5 967.837 549.142 971.194 545 971.194 540.858 971.194 537.5 967.837 537.5 963.696Z" stroke="#4472C4" stroke-width="1.33333" stroke-miterlimit="8" fill="#8FAADC" fill-rule="evenodd"/><path d="M573.5 965.696C573.5 961.555 576.858 958.198 581 958.198 585.142 958.198 588.5 961.555 588.5 965.696 588.5 969.837 585.142 973.193 581 973.193 576.858 973.193 573.5 969.837 573.5 965.696Z" stroke="#4472C4" stroke-width="1.33333" stroke-miterlimit="8" fill="#8FAADC" fill-rule="evenodd"/><path d="M609.5 966.695C609.5 962.555 612.858 959.198 617 959.198 621.142 959.198 624.5 962.555 624.5 966.695 624.5 970.836 621.142 974.193 617 974.193 612.858 974.193 609.5 970.836 609.5 966.695Z" stroke="#4472C4" stroke-width="1.33333" stroke-miterlimit="8" fill="#8FAADC" fill-rule="evenodd"/><path d="M645.5 966.196C645.5 961.779 649.082 958.198 653.5 958.198 657.918 958.198 661.5 961.779 661.5 966.196 661.5 970.613 657.918 974.193 653.5 974.193 649.082 974.193 645.5 970.613 645.5 966.196Z" stroke="#ED7D31" stroke-width="1.33333" stroke-miterlimit="8" fill="#F4B183" fill-rule="evenodd"/><path d="M682.5 965.696C682.5 961.555 685.858 958.198 690 958.198 694.142 958.198 697.5 961.555 697.5 965.696 697.5 969.837 694.142 973.193 690 973.193 685.858 973.193 682.5 969.837 682.5 965.696Z" stroke="#ED7D31" stroke-width="1.33333" stroke-miterlimit="8" fill="#F4B183" fill-rule="evenodd"/><path d="M718.5 965.696C718.5 961.555 721.858 958.198 726 958.198 730.142 958.198 733.5 961.555 733.5 965.696 733.5 969.837 730.142 973.193 726 973.193 721.858 973.193 718.5 969.837 718.5 965.696Z" stroke="#ED7D31" stroke-width="1.33333" stroke-miterlimit="8" fill="#F4B183" fill-rule="evenodd"/><path d="M754.5 965.696C754.5 961.555 757.858 958.198 762 958.198 766.142 958.198 769.5 961.555 769.5 965.696 769.5 969.837 766.142 973.193 762 973.193 757.858 973.193 754.5 969.837 754.5 965.696Z" stroke="#ED7D31" stroke-width="1.33333" stroke-miterlimit="8" fill="#F4B183" fill-rule="evenodd"/><path d="M790.5 965.696C790.5 961.555 793.858 958.198 798 958.198 802.142 958.198 805.5 961.555 805.5 965.696 805.5 969.837 802.142 973.193 798 973.193 793.858 973.193 790.5 969.837 790.5 965.696Z" stroke="#70AD47" stroke-width="1.33333" stroke-miterlimit="8" fill="#A9D18E" fill-rule="evenodd"/><path d="M826.5 965.696C826.5 961.555 829.858 958.198 834 958.198 838.142 958.198 841.5 961.555 841.5 965.696 841.5 969.837 838.142 973.193 834 973.193 829.858 973.193 826.5 969.837 826.5 965.696Z" stroke="#70AD47" stroke-width="1.33333" stroke-miterlimit="8" fill="#A9D18E" fill-rule="evenodd"/><path d="M862.5 965.696C862.5 961.555 865.858 958.198 870 958.198 874.142 958.198 877.5 961.555 877.5 965.696 877.5 969.837 874.142 973.193 870 973.193 865.858 973.193 862.5 969.837 862.5 965.696Z" stroke="#70AD47" stroke-width="1.33333" stroke-miterlimit="8" fill="#A9D18E" fill-rule="evenodd"/><path d="M898.5 965.696C898.5 961.555 901.858 958.198 906 958.198 910.142 958.198 913.5 961.555 913.5 965.696 913.5 969.837 910.142 973.193 906 973.193 901.858 973.193 898.5 969.837 898.5 965.696Z" stroke="#70AD47" stroke-width="1.33333" stroke-miterlimit="8" fill="#A9D18E" fill-rule="evenodd"/><path d="M1.98557-1.7788 141.629 154.098 137.658 157.655-1.98557 1.7788ZM143.822 148.554 148.538 165.804 131.908 159.227Z" fill="#4472C4" fill-opacity="0.8" transform="matrix(-1.00032 0 0 1 658.085 792.25)"/><path d="M2.19959-1.50614 107.106 151.701 102.707 154.713-2.19959 1.50614ZM109.999 146.489 112.437 164.205 96.8013 155.526Z" fill="#4472C4" fill-opacity="0.8" transform="matrix(-1.00032 0 0 1 657.972 792.25)"/><path d="M2.42151-1.11486 73.1832 152.582 68.3402 154.812-2.42151 1.11486ZM76.9113 147.93 76.336 165.804 62.3822 154.62Z" fill="#4472C4" fill-opacity="0.8" transform="matrix(-1.00032 0 0 1 657.86 792.25)"/><path d="M2.59199-0.623091 39.7115 153.79 34.5275 155.036-2.59199 0.623091ZM44.2724 149.952 40.235 167.373 28.7205 153.69Z" fill="#4472C4" fill-opacity="0.8" transform="matrix(-1.00032 0 0 1 657.748 792.25)"/><path d="M2.66501-0.066138 6.46834 153.188 1.13833 153.32-2.66501 0.066138ZM11.7322 150.391 4.13403 166.579-4.25782 150.787Z" fill="#4472C4" fill-opacity="0.8" transform="matrix(-1.00032 0 0 1 657.635 792.25)"/><path d="M660.119 791.747 689.577 944.853 684.34 945.86 654.881 792.754ZM694.311 941.228 689.477 958.445 678.599 944.249Z" fill="#4472C4" fill-opacity="0.8"/><path d="M659.968 791.24 723.004 945.1 718.068 947.121 655.032 793.261ZM726.928 940.613 725.589 958.445 712.122 946.675Z" fill="#4472C4" fill-opacity="0.8"/><path d="M659.76 790.835 756.88 945.735 752.361 948.567 655.241 793.666ZM759.983 940.645 761.702 958.445 746.426 949.14Z" fill="#4472C4" fill-opacity="0.8"/><path d="M2.23598-1.45156 103.119 153.948 98.6467 156.851-2.23598 1.45156ZM106.139 148.809 108.14 166.579 92.7231 157.518Z" fill="#70AD47" fill-opacity="0.8" transform="matrix(-1.00032 0 0 1 761.675 792.25)"/><path d="M2.44593-1.06022 69.1843 152.905 64.2924 155.025-2.44593 1.06022ZM73.0159 148.339 72.0395 166.195 58.3403 154.7Z" fill="#70AD47" fill-opacity="0.8" transform="matrix(-1.00032 0 0 1 761.562 792.25)"/><path d="M2.6056-0.563443 35.7269 152.603 30.5157 153.73-2.6056 0.563443ZM40.3746 148.871 35.9385 166.195 24.741 152.252Z" fill="#70AD47" fill-opacity="0.8" transform="matrix(-1.00032 0 0 1 761.45 792.25)"/><path d="M764.167 792.248 764.316 945.113 758.983 945.119 758.833 792.253ZM769.647 942.443 761.663 958.445 753.647 942.458Z" fill="#70AD47" fill-opacity="0.8"/><path d="M764.105 791.682 797.538 944.854 792.327 945.991 758.895 792.819ZM802.18 941.113 797.775 958.445 786.548 944.523Z" fill="#70AD47" fill-opacity="0.8"/><path d="M763.945 791.186 831.009 945.16 826.119 947.289 759.055 793.315ZM834.835 940.588 833.887 958.445 820.165 946.973Z" fill="#70AD47" fill-opacity="0.8"/><path d="M763.733 790.793 864.946 945.826 860.479 948.74 759.267 793.707ZM867.954 940.68 870 958.445 854.555 949.422Z" fill="#70AD47" fill-opacity="0.8"/><path d="M763.51 790.498 899.359 946.25 895.339 949.754 759.49 794.002ZM901.626 940.737 906.112 958.048 889.567 951.249Z" fill="#70AD47" fill-opacity="0.8"/><path d="M638.5 773.256C638.5 762.766 647.007 754.262 657.5 754.262 667.993 754.262 676.5 762.766 676.5 773.256 676.5 783.747 667.993 792.25 657.5 792.25 647.007 792.25 638.5 783.747 638.5 773.256Z" stroke="#4472C4" stroke-width="1.33333" stroke-miterlimit="8" fill="#4472C4" fill-rule="evenodd"/><path d="M742.5 773.256C742.5 762.766 751.007 754.262 761.5 754.262 771.993 754.262 780.5 762.766 780.5 773.256 780.5 783.747 771.993 792.25 761.5 792.25 751.007 792.25 742.5 783.747 742.5 773.256Z" stroke="#70AD47" stroke-width="1.33333" stroke-miterlimit="8" fill="#70AD47" fill-rule="evenodd"/><text font-family="SimSun,SimSun_MSFontService,sans-serif" font-weight="400" font-size="32" transform="matrix(1 0 0 0.999685 37.2619 820)">Gene expression <tspan x="64" y="38.012">profile</tspan><tspan x="-1.81417" y="-525.165">Gene co</tspan>-expression <tspan x="86.1858" y="-487.153">network</tspan></text><text font-family="Cambria Math,Cambria Math_MSFontService,sans-serif" font-weight="400" font-size="32" transform="matrix(1 0 0 0.999685 435.958 565)"><tspan font-size="23" x="64.5133" y="7.00221"></tspan><tspan x="179.99" y="-193.061"></tspan><tspan font-size="23" x="241.343" y="-187.059"></tspan><tspan x="263.523" y="-193.061">log</tspan><tspan x="310.356" y="-193.061"></tspan><tspan x="328.583" y="-193.061">(</tspan><tspan x="341.916" y="-193.061"></tspan><tspan x="362.563" y="-193.061">|</tspan><tspan x="372.73" y="-193.061"></tspan><tspan x="393.483" y="-193.061">)</tspan></text><path d="M0 18.7717 7.49764 0 14.9953 18.7717 11.2465 18.7717 11.2465 101.968 3.74887 101.968 3.74887 18.7717Z" fill="#4472C4" fill-rule="evenodd" fill-opacity="0.8" transform="matrix(-1.00032 0 0 1 170 383.879)"/><path d="M867 733.401 871 733.401 871 649.795 879 649.795 879 733.401 883 733.401 875 759.761Z" fill="#ED7D31" fill-rule="evenodd" fill-opacity="0.8"/><path d="M0 19.3035 7.55781 0 15.1155 19.3035 11.3366 19.3035 11.3366 102.313 3.7789 102.313 3.7789 19.3035Z" fill="#70AD47" fill-rule="evenodd" fill-opacity="0.8" transform="matrix(0.740527 -0.672072 -0.672284 -0.740294 398.822 297.632)"/><path d="M0 15.4226 7.55765 0 15.1152 15.4226 11.3364 15.4226 11.3364 102.311 3.77883 102.311 3.77883 15.4226Z" fill="#70AD47" fill-rule="evenodd" fill-opacity="0.8" transform="matrix(-0.623375 -0.781923 -0.78217 0.623178 391.225 579.781)"/><path d="M654 398.624 771.86 398.624 771.86 394.876 796 402.373 771.86 409.871 771.86 406.122 654 406.122Z" fill="#4472C4" fill-rule="evenodd" fill-opacity="0.8"/><text font-family="Cambria Math,Cambria Math_MSFontService,sans-serif" font-weight="400" font-size="32" transform="matrix(1 0 0 0.999685 866.391 600)"></text><path d="M944 398.624 1018.11 398.624 1018.11 394.876 1039 402.373 1018.11 409.871 1018.11 406.122 944 406.122Z" fill="#ED7D31" fill-rule="evenodd" fill-opacity="0.8"/><path d="M1125 360.886C1125 357.022 1127.91 353.888 1131.5 353.888 1135.09 353.888 1138 357.022 1138 360.886 1138 364.751 1135.09 367.884 1131.5 367.884 1127.91 367.884 1125 364.751 1125 360.886Z" fill="#4472C4" fill-rule="evenodd"/><path d="M1139 450.358C1139 446.769 1142.13 443.86 1146 443.86 1149.87 443.86 1153 446.769 1153 450.358 1153 453.947 1149.87 456.856 1146 456.856 1142.13 456.856 1139 453.947 1139 450.358Z" fill="#4472C4" fill-rule="evenodd"/><path d="M1080 380.38C1080 376.791 1082.91 373.882 1086.5 373.882 1090.09 373.882 1093 376.791 1093 380.38 1093 383.969 1090.09 386.878 1086.5 386.878 1082.91 386.878 1080 383.969 1080 380.38Z" fill="#4472C4" fill-rule="evenodd"/><path d="M1100 445.86C1100 441.995 1103.13 438.862 1107 438.862 1110.87 438.862 1114 441.995 1114 445.86 1114 449.724 1110.87 452.857 1107 452.857 1103.13 452.857 1100 449.724 1100 445.86Z" fill="#4472C4" fill-rule="evenodd"/><path d="M1070 418.868C1070 415.003 1073.13 411.87 1077 411.87 1080.87 411.87 1084 415.003 1084 418.868 1084 422.733 1080.87 425.866 1077 425.866 1073.13 425.866 1070 422.733 1070 418.868Z" fill="#4472C4" fill-rule="evenodd"/><path d="M1211 441.861C1211 437.996 1214.13 434.863 1218 434.863 1221.87 434.863 1225 437.996 1225 441.861 1225 445.726 1221.87 448.859 1218 448.859 1214.13 448.859 1211 445.726 1211 441.861Z" fill="#70AD47" fill-rule="evenodd"/><path d="M1142 390.377C1142 386.788 1145.13 383.879 1149 383.879 1152.87 383.879 1156 386.788 1156 390.377 1156 393.966 1152.87 396.875 1149 396.875 1145.13 396.875 1142 393.966 1142 390.377Z" fill="#4472C4" fill-rule="evenodd"/><path d="M1187 416.869C1187 413.004 1189.91 409.871 1193.5 409.871 1197.09 409.871 1200 413.004 1200 416.869 1200 420.733 1197.09 423.866 1193.5 423.866 1189.91 423.866 1187 420.733 1187 416.869Z" fill="#70AD47" fill-rule="evenodd"/><path d="M1217 404.872C1217 401.008 1219.91 397.875 1223.5 397.875 1227.09 397.875 1230 401.008 1230 404.872 1230 408.737 1227.09 411.87 1223.5 411.87 1219.91 411.87 1217 408.737 1217 404.872Z" fill="#70AD47" fill-rule="evenodd"/><path d="M1196 382.879C1196 379.015 1198.91 375.882 1202.5 375.882 1206.09 375.882 1209 379.015 1209 382.879 1209 386.744 1206.09 389.877 1202.5 389.877 1198.91 389.877 1196 386.744 1196 382.879Z" fill="#70AD47" fill-rule="evenodd"/><path d="M1100 403.873C1100 400.008 1102.91 396.875 1106.5 396.875 1110.09 396.875 1113 400.008 1113 403.873 1113 407.738 1110.09 410.871 1106.5 410.871 1102.91 410.871 1100 407.738 1100 403.873Z" fill="#4472C4" fill-rule="evenodd"/><path d="M1118 417.368C1118 413.78 1120.91 410.871 1124.5 410.871 1128.09 410.871 1131 413.78 1131 417.368 1131 420.957 1128.09 423.866 1124.5 423.866 1120.91 423.866 1118 420.957 1118 417.368Z" fill="#4472C4" fill-rule="evenodd"/><path d="M1055.89 414.503C1053.67 398.205 1061.19 378.111 1073.14 364.938 1085.08 351.765 1110.96 334.127 1127.54 335.466 1144.13 336.806 1167.57 360.026 1172.66 372.975 1177.75 385.925 1158.06 400.437 1158.06 413.164 1158.06 425.89 1171.78 439.063 1172.66 449.333 1173.54 459.604 1161.82 472.553 1147.45 474.786 1133.07 477.018 1101.22 472.553 1086.41 462.729 1071.59 452.906 1058.1 430.802 1055.89 414.503Z" stroke="#2F528F" stroke-width="1.33333" stroke-miterlimit="8" fill="#4472C4" fill-rule="evenodd" fill-opacity="0.25098"/><path d="M1196.1 371.765C1187.67 375.099 1173.04 408.216 1175.85 417.773 1178.67 427.331 1195.54 426.442 1200.83 433.11 1206.11 439.778 1203.08 453.891 1207.58 457.781 1212.08 461.671 1222.31 466.338 1227.83 456.447 1233.34 446.557 1249.99 415.884 1242.67 401.77 1235.36 387.657 1204.54 368.431 1196.1 371.765Z" stroke="#70AD47" stroke-width="1.33333" stroke-miterlimit="8" fill="#70AD47" fill-rule="evenodd" fill-opacity="0.25098"/><text font-family="SimSun,SimSun_MSFontService,sans-serif" font-weight="400" font-size="32" transform="matrix(1 0 0 0.999685 900.719 707)">Set threshold<tspan x="33.8077" y="-332.105">Cluster</tspan><tspan x="-867.487" y="-266.084">Pearson</tspan><tspan x="-194.002" y="324.102">Module affiliation network</tspan></text></g></svg>